<?xml version="1.0"?>

<svg version="1.0" xmlns="http://www.w3.org/2000/svg"
 width="96px" height="96px" viewBox="0 0 96.000000 96.000000"
 preserveAspectRatio="xMidYMid meet">

<g transform="translate(0.000000,96.000000) scale(0.100000,-0.100000)"
fill="#ffffff" stroke="none" opacity="0.8">
<path d="M386 870 c-63 -16 -153 -70 -197 -117 -22 -24 -55 -74 -72 -111 -29
-61 -32 -76 -32 -163 0 -90 2 -99 37 -171 45 -91 103 -147 196 -191 61 -29 76
-32 162 -32 86 0 101 3 162 32 93 44 151 100 196 191 35 72 37 81 37 172 0 91
-2 100 -37 172 -68 136 -188 217 -336 224 -42 2 -94 -1 -116 -6z m294 -230
c12 -12 18 -24 16 -29 -3 -4 -53 -29 -110 -56 l-105 -48 -106 48 c-59 27 -108
52 -111 57 -3 4 4 16 16 28 19 19 32 20 200 20 168 0 181 -1 200 -20z m-306
-151 l107 -51 77 37 c42 21 92 44 110 51 l32 14 0 -100 c0 -145 7 -140 -220
-140 -227 0 -220 -4 -220 140 0 55 2 100 4 100 2 0 51 -23 110 -51z"/>
</g>
</svg>
